HIERARCHY
ROOT Hips
{
	OFFSET 0.0000 0.0000 0.0000
	CHANNELS 6 Xposition Yposition Zposition Zrotation Xrotation Yrotation
	JOINT Spine1
	{
		OFFSET -0.0137 5.0038 -0.0537
		CHANNELS 3 Zrotation Xrotation Yrotation
		JOINT Spine2
		{
			OFFSET -0.0000 7.1253 -0.0298
			CHANNELS 3 Zrotation Xrotation Yrotation
			JOINT Chest
			{
				OFFSET -0.0000 7.5501 -0.8160
				CHANNELS 3 Zrotation Xrotation Yrotation
				JOINT Neck1
				{
					OFFSET -0.1817 26.3113 -0.5533
					CHANNELS 3 Zrotation Xrotation Yrotation
					JOINT Neck2
					{
						OFFSET -0.0000 7.7094 2.3026
						CHANNELS 3 Zrotation Xrotation Yrotation
						JOINT Head
						{
							OFFSET -0.0000 6.1289 1.9537
							CHANNELS 3 Zrotation Xrotation Yrotation
							JOINT Jaw
							{
								OFFSET 0.0026 0.4756 3.0949
								CHANNELS 3 Zrotation Xrotation Yrotation
								End Site
								{
									OFFSET 0.0 1.0 0.0
								}
							}
							JOINT LeftEye
							{
								OFFSET 3.2064 5.3802 7.5869
								CHANNELS 3 Zrotation Xrotation Yrotation
								End Site
								{
									OFFSET 0.0 1.0 0.0
								}
							}
							JOINT RightEye
							{
								OFFSET -3.2224 5.3619 7.5582
								CHANNELS 3 Zrotation Xrotation Yrotation
								End Site
								{
									OFFSET 0.0 1.0 0.0
								}
							}
						}
					}
				}
				JOINT LeftShoulder
				{
					OFFSET 1.6217 23.2372 5.1134
					CHANNELS 3 Zrotation Xrotation Yrotation
					JOINT LeftArm
					{
						OFFSET 14.9198 0.0000 -5.5023
						CHANNELS 3 Zrotation Xrotation Yrotation
						JOINT LeftForeArm
						{
							OFFSET 28.7393 0.0000 -0.0026
							CHANNELS 3 Zrotation Xrotation Yrotation
							JOINT LeftHand
							{
								OFFSET 27.0940 -0.0000 0.0026
								CHANNELS 3 Zrotation Xrotation Yrotation
								JOINT LeftHandThumbEnd
								{
									OFFSET 12.2686 -3.2202 4.8331
									CHANNELS 3 Zrotation Xrotation Yrotation
									End Site
									{
										OFFSET 0.0 1.0 0.0
									}
								}
								JOINT LeftHandMiddleEnd
								{
									OFFSET 19.0120 -0.3129 -0.0340
									CHANNELS 3 Zrotation Xrotation Yrotation
									End Site
									{
										OFFSET 0.0 1.0 0.0
									}
								}
							}
						}
					}
				}
				JOINT RightShoulder
				{
					OFFSET -1.3801 23.1803 5.2142
					CHANNELS 3 Zrotation Xrotation Yrotation
					JOINT RightArm
					{
						OFFSET -15.0372 0.0000 -5.5456
						CHANNELS 3 Zrotation Xrotation Yrotation
						JOINT RightForeArm
						{
							OFFSET -28.7366 0.0000 -0.0026
							CHANNELS 3 Zrotation Xrotation Yrotation
							JOINT RightHand
							{
								OFFSET -27.1336 -0.0000 0.0026
								CHANNELS 3 Zrotation Xrotation Yrotation
								JOINT RightHandThumbEnd
								{
									OFFSET -12.2642 -3.2115 4.8040
									CHANNELS 3 Zrotation Xrotation Yrotation
									End Site
									{
										OFFSET 0.0 1.0 0.0
									}
								}
								JOINT RightHandMiddleEnd
								{
									OFFSET -19.0006 -0.3066 -0.0316
									CHANNELS 3 Zrotation Xrotation Yrotation
									End Site
									{
										OFFSET 0.0 1.0 0.0
									}
								}
							}
						}
					}
				}
			}
		}
	}
	JOINT LeftLeg
	{
		OFFSET 10.0432 -8.4345 2.5957
		CHANNELS 3 Zrotation Xrotation Yrotation
		JOINT LeftShin
		{
			OFFSET -0.0000 -43.2218 -0.8029
			CHANNELS 3 Zrotation Xrotation Yrotation
			JOINT LeftFoot
			{
				OFFSET 0.0000 -42.1551 -3.4815
				CHANNELS 3 Zrotation Xrotation Yrotation
				JOINT LeftToeBase
				{
					OFFSET 0.0000 -5.0595 13.2315
					CHANNELS 3 Zrotation Xrotation Yrotation
					End Site
					{
						OFFSET 0.0 1.0 0.0
					}
				}
			}
		}
	}
	JOINT RightLeg
	{
		OFFSET -10.0473 -8.2953 2.6203
		CHANNELS 3 Zrotation Xrotation Yrotation
		JOINT RightShin
		{
			OFFSET 0.0000 -43.3622 -0.8056
			CHANNELS 3 Zrotation Xrotation Yrotation
			JOINT RightFoot
			{
				OFFSET 0.0000 -42.1174 -3.4784
				CHANNELS 3 Zrotation Xrotation Yrotation
				JOINT RightToeBase
				{
					OFFSET -0.0000 -5.0796 13.2842
					CHANNELS 3 Zrotation Xrotation Yrotation
					End Site
					{
						OFFSET 0.0 1.0 0.0
					}
				}
			}
		}
	}
}
MOTION
Frames: 12
Frame Time: 0.033333
-7.9311 98.8148 -291.8476 -5.8579 -4.4044 3.2259 4.6212 1.7134 0.0952 0.5605 -4.5431 -0.6181 2.7073 12.8422 -2.0868 0.7080 11.6055 2.8426 -0.6683 -3.6242 -0.0332 -3.1578 -13.6556 0.6549 0.0049 0.0609 -0.0501 0.6631 -10.5303 -3.9158 -0.6515 -10.5179 3.8216 -10.1190 15.1424 -10.4770 -64.6223 -0.0024 -31.1977 -0.3567 -0.1222 -16.0821 2.6889 -15.2212 -1.3677 -15.8354 10.6886 15.7184 -60.6529 1.6245 2.4613 14.5827 12.7554 15.4290 60.0928 5.4275 9.6304 -0.0946 0.1856 34.3161 -0.0798 -19.7869 -0.8628 15.5101 7.4745 -16.4236 49.6574 -3.8664 -5.1854 7.1596 -5.6255 3.8413 -0.2187 51.6071 -0.5466 -7.6465 -8.9160 4.6467 1.9505 -3.9419 -2.1901 11.0493 -2.2346 -10.3125 0.0391 2.7706 -0.4903 -4.6369 2.4190 -8.7449 -1.4328 0.5549 0.7702
-7.5640 98.5861 -294.4523 -6.2236 -3.7931 3.9322 4.7159 1.1980 -0.0237 0.6264 -4.7570 -0.9205 2.8778 12.6737 -2.3409 0.8238 11.5823 2.7348 -0.7020 -3.6353 -0.2013 -3.0944 -13.4088 0.5579 0.0033 0.0653 -0.0467 0.6588 -10.5307 -3.9121 -0.6496 -10.5168 3.8271 -10.0905 14.9223 -10.7794 -64.4217 -0.0634 -31.0748 -0.4146 -0.1337 -16.3686 2.9548 -14.6411 -1.2298 -15.8190 10.6630 15.6847 -60.6398 1.5791 2.4906 14.9231 12.7050 15.0466 60.1189 5.4360 8.5930 -0.0680 0.1835 33.7111 -0.0245 -19.9868 -0.7926 15.4759 7.5395 -16.4913 49.7783 -3.8704 -5.1588 7.5857 -1.6341 4.2193 -0.2374 48.5397 -0.7370 -7.8989 -8.4368 3.1720 1.9604 -4.7847 -2.1739 11.4726 -4.4946 -10.6953 0.0365 2.7255 -0.4667 -4.5401 3.8438 -9.2452 -1.4233 0.5272 0.8144
-7.2343 98.3069 -297.2411 -6.3818 -3.1215 4.6822 4.6823 0.6551 -0.1602 0.6505 -4.9744 -1.1726 2.9499 12.5062 -2.6025 0.9452 11.5083 2.6175 -0.7157 -3.6603 -0.3759 -2.9588 -13.0046 0.3624 0.0009 0.0669 -0.0354 0.6601 -10.5395 -3.8997 -0.6554 -10.5253 3.8387 -10.1402 14.6723 -11.0982 -63.9475 -0.2389 -30.9437 -0.4078 -0.1621 -16.8879 3.2536 -14.2591 -1.1582 -15.8049 10.6726 15.7112 -60.6710 1.5560 2.5021 15.2771 12.6053 14.6561 60.1890 5.3339 7.4043 -0.0347 0.2129 33.2428 0.0776 -20.2062 -0.7355 15.4789 7.5724 -16.5780 49.9280 -3.8963 -5.0965 7.7198 2.4295 4.2880 -0.1789 43.1349 -0.8209 -7.5231 -8.1062 2.0823 1.9823 -6.2686 -2.1909 11.6464 -6.9328 -11.1679 0.0469 2.7218 -0.4627 -4.3397 5.3969 -9.7818 -1.4126 0.5359 0.8644
-6.8859 97.9412 -300.1417 -6.2837 -2.4132 5.4743 4.5152 0.1334 -0.3055 0.6092 -5.1642 -1.3970 2.9048 12.2976 -2.8004 1.0975 11.4305 2.5198 -0.6561 -3.7027 -0.6085 -2.7860 -12.5152 0.0681 -0.0001 0.0666 -0.0257 0.6708 -10.5401 -3.8865 -0.6677 -10.5199 3.8442 -10.2015 14.3733 -11.4895 -63.2786 -0.5561 -30.7850 -0.3168 -0.1855 -17.6143 3.5953 -14.1695 -1.1937 -15.7427 10.7766 15.8400 -60.7032 1.5656 2.4690 15.6422 12.4611 14.2811 60.2933 5.1906 6.0628 0.0121 0.2517 33.1095 0.3395 -20.3363 -0.7610 15.5375 7.5724 -16.6492 50.0024 -3.9230 -5.0980 7.3845 6.6350 4.0070 -0.0973 34.8779 -0.8385 -6.3721 -8.8171 1.4389 2.0526 -9.7921 -2.3038 11.5450 -9.5893 -11.8587 0.0420 2.8520 -0.4986 -3.9118 6.9207 -10.1931 -1.4017 0.6079 0.9107
-6.5582 97.5537 -303.2589 -5.8181 -1.7309 6.2933 4.1200 -0.2579 -0.3354 0.5046 -5.3268 -1.6548 2.7288 12.1017 -2.9987 1.3894 11.3064 2.3839 -0.6708 -3.7455 -0.8885 -2.5866 -12.1768 -0.2221 0.0008 0.0542 -0.0332 0.6707 -10.5373 -3.8935 -0.6657 -10.5128 3.8361 -10.2546 13.9952 -11.9187 -62.4146 -0.9211 -30.6881 -0.1888 -0.1824 -18.7930 4.1991 -14.5707 -1.3655 -15.6674 10.9289 15.9677 -60.7064 1.5726 2.4215 15.9781 12.2434 13.9986 60.3812 5.0450 4.7412 0.0491 0.2319 33.4624 0.7686 -20.2744 -0.8446 15.5852 7.5754 -16.7107 50.0386 -3.9136 -5.2379 6.3522 10.3675 3.5231 -0.0095 24.9750 -0.7675 -4.8210 -12.1623 1.9452 2.0265 -9.8589 -2.3297 11.1122 -12.4697 -12.7949 -0.0007 3.2079 -0.4730 -3.2197 8.2231 -10.2789 -1.4007 0.5908 0.9652
-6.2324 97.2349 -306.4457 -4.5977 -1.3743 7.2459 3.2052 -0.4122 -0.4144 0.3280 -5.3112 -1.8463 2.2973 12.0733 -3.1941 1.8716 10.8809 2.3084 -0.8849 -3.8005 -1.2640 -2.2420 -11.7876 -0.4227 0.0043 0.0427 -0.0318 0.6691 -10.5889 -3.9077 -0.6599 -10.5424 3.8507 -10.3798 13.4862 -12.2584 -61.1858 -1.2255 -30.7601 -0.0957 -0.1061 -20.3151 4.9285 -14.6908 -1.5261 -15.6647 10.8966 15.8760 -60.7446 1.5004 2.3255 16.4883 12.1497 13.9076 60.3297 4.5222 3.7051 -0.1697 0.1908 33.8961 1.4546 -20.1648 -0.9285 15.7904 7.6268 -16.7738 50.3355 -3.9717 -5.2584 4.1135 13.3648 2.2644 -0.0197 15.5523 -0.5706 -3.5128 -14.9654 3.3678 1.8965 -5.7654 -2.1522 9.7100 -15.1391 -13.6507 -0.0524 3.3750 -0.3841 -1.7124 9.4506 -10.2040 -1.3942 0.0223 0.9694
-5.8703 97.2094 -309.6515 -2.6613 -1.5509 8.0461 1.9555 -0.1996 -0.4313 0.0774 -5.1985 -1.7398 1.4449 12.2075 -3.4461 2.5482 10.8548 2.2184 -1.1507 -3.7842 -1.3237 -1.9383 -11.8815 -1.1247 0.0132 0.0414 0.0026 0.6814 -10.5813 -3.8687 -0.6555 -10.5544 3.8788 -10.4450 13.2637 -12.7621 -59.5472 -1.8829 -30.9801 -0.1804 -0.1364 -21.8410 5.7634 -15.1974 -1.8836 -15.5963 10.8722 15.9068 -60.6262 1.5468 2.3035 16.9259 11.9218 13.6766 60.3416 3.6758 2.6698 -0.0042 0.1427 34.3854 1.3083 -19.8471 -0.8747 15.8813 7.6420 -16.8372 50.5562 -3.8046 -5.3576 0.7901 15.2518 0.1113 -0.0284 8.3459 -0.2518 -1.9935 -15.6306 4.7510 1.8082 -2.0966 -2.0974 7.4516 -17.3313 -14.8427 0.0307 3.3327 -0.3103 0.3362 9.4575 -9.3652 -1.4097 -0.5190 1.0955
-5.5486 97.2528 -312.9503 -0.5884 -2.1515 8.4373 0.6735 0.2568 -0.2816 -0.1794 -4.9993 -1.6265 0.5720 12.4644 -3.5319 2.9012 11.0603 2.2039 -1.2106 -3.8353 -1.3791 -1.7253 -12.1809 -1.6311 0.0147 0.0600 0.0406 0.6741 -10.5893 -3.8259 -0.6453 -10.5702 3.9136 -10.2031 13.2165 -13.1457 -58.1980 -2.6164 -31.6268 -0.0191 -0.1987 -23.1112 6.3178 -15.6833 -2.2267 -15.5063 10.9141 16.0284 -60.6210 1.6392 2.2872 16.8145 11.9073 13.5724 60.8095 2.3842 1.7591 0.4263 0.0484 34.7662 0.9327 -19.4895 -0.9033 15.8651 7.5892 -16.7443 50.6293 -3.7904 -5.2567 -2.3898 15.9570 -1.3591 -0.0197 3.8843 -0.0595 -0.8282 -14.8325 5.2454 1.7273 -0.5174 -2.0723 5.1188 -18.8398 -15.9178 0.1331 2.8207 -0.2150 3.5504 8.0663 -8.2904 -1.4014 -1.1175 1.1420
-5.2045 97.3778 -316.2477 1.4711 -3.1193 8.2887 -0.5545 0.9764 -0.1859 -0.3979 -4.6780 -1.3862 -0.2613 12.6863 -3.4318 2.9974 11.2899 2.1564 -1.2410 -3.8140 -1.4720 -1.5795 -12.6963 -1.7462 0.0166 0.0737 0.0480 0.6740 -10.5937 -3.8175 -0.6427 -10.5749 3.9220 -9.6743 13.3786 -13.3149 -57.2657 -3.3101 -32.3581 0.2047 -0.1303 -24.3753 6.7435 -16.0286 -2.6142 -15.4003 10.8504 16.0892 -60.5463 1.6239 2.4395 16.2083 12.0460 13.5146 61.6735 1.2925 1.6178 0.6375 -0.0267 35.2238 0.5711 -19.6248 -1.0204 15.8345 7.5640 -16.6972 50.4945 -3.7490 -5.2881 -5.2170 15.7060 -1.8675 -0.0562 2.1109 0.0680 0.0398 -13.5458 5.2039 1.6884 0.1583 -2.0707 2.8796 -19.9661 -16.9323 0.1883 2.5046 -0.1521 7.3538 4.9601 -7.4945 -1.3491 -1.5137 1.1636
-4.9624 97.5135 -319.3978 3.1296 -4.2967 7.8346 -1.5895 1.8533 -0.1749 -0.5560 -4.3147 -1.0854 -0.7891 12.8335 -3.2579 2.8237 11.6071 2.1668 -1.2220 -3.8063 -1.5968 -1.5464 -13.3173 -1.6051 0.0177 0.0849 0.0242 0.6829 -10.6108 -3.8506 -0.6506 -10.5959 3.9091 -9.2169 13.6992 -13.2979 -56.5749 -3.6825 -33.1001 0.3861 -0.0369 -25.5684 7.2125 -16.4083 -3.0573 -15.2906 10.8584 16.0191 -60.4066 1.6694 2.3736 15.3867 12.2261 13.5217 62.5970 0.7552 2.3955 0.4386 -0.0103 35.9466 0.4672 -20.4181 -1.0764 15.8109 7.5789 -16.6468 50.2338 -3.7316 -5.2946 -7.3952 15.1934 -1.6734 -0.0662 1.5443 0.1436 0.6478 -12.1749 4.9092 1.6623 0.4507 -2.0772 1.1219 -20.6536 -17.9205 0.2082 2.8182 -0.1557 9.7675 1.4791 -7.5709 -1.2994 -1.6011 1.1619
-4.8309 97.8095 -322.4068 3.8154 -5.4086 7.0168 -1.9729 2.6563 -0.1725 -0.5944 -4.0248 -0.8039 -0.9460 13.0833 -3.1322 2.3870 11.8804 2.2366 -1.1914 -3.7848 -1.5858 -1.6857 -13.8261 -1.3064 0.0214 0.0826 -0.0160 0.6962 -10.6193 -3.8913 -0.6572 -10.6131 3.8673 -9.0510 13.8678 -13.0640 -56.2597 -3.6831 -33.6514 0.5555 0.0464 -26.2035 7.7447 -16.8342 -3.5677 -15.2063 10.8329 15.9006 -60.3190 1.6199 2.2968 14.7924 12.4542 13.7091 62.9266 0.1968 3.6146 0.2322 0.0507 36.6210 0.5438 -21.4245 -0.8622 15.8673 7.6211 -16.6816 50.2157 -3.7170 -5.3297 -8.4465 14.4567 -1.0732 -0.0288 1.5300 0.2134 1.2144 -10.7385 4.8813 1.6548 0.4901 -2.0704 0.2938 -21.1017 -18.6396 0.2063 5.3775 -0.1929 9.1263 0.4650 -9.0790 -1.3204 -1.5815 1.1496
-4.7168 98.2210 -325.0942 3.6673 -6.3094 5.9923 -1.8781 3.3213 -0.1950 -0.5465 -3.8303 -0.6762 -0.7250 13.3038 -3.0452 1.8058 12.1530 2.4004 -1.0829 -3.7504 -1.4426 -1.9103 -14.2195 -0.8254 0.0248 0.0718 -0.0545 0.7011 -10.6204 -3.9235 -0.6552 -10.6213 3.8198 -8.7753 14.0057 -12.7101 -56.7981 -3.7751 -33.8400 0.7108 0.0986 -25.9196 8.1330 -17.3138 -3.9400 -15.2270 10.8078 15.8499 -60.3780 1.5539 2.2368 14.3334 12.6587 14.0563 62.8884 -0.5350 4.6755 0.2077 0.0858 37.0985 0.4609 -22.1932 -0.3651 15.9364 7.6057 -16.6880 50.3046 -3.6771 -5.3387 -8.6153 13.5199 -0.4545 0.0145 1.6717 0.2580 1.8875 -9.2196 5.4176 1.6588 0.4514 -2.0554 -0.0738 -21.4943 -18.6161 0.1592 10.6422 -0.2486 7.2423 0.0628 -10.9633 -1.3701 -1.4837 1.1393
